<svg width="900" height="900" viewBox="0 0 900 900" fill="none" xmlns="http://www.w3.org/2000/svg">
<g clip-path="url(#clip0_1_2)">
<path d="M873.274 611.262L651.833 230.135C645.083 218.517 635.731 208.694 624.5 201.425C586.666 176.937 535.8 186.078 507.191 222.507L492.054 241.781C462.207 279.786 458.268 331.829 482.154 372.558L688.377 724.193C710.319 761.606 752.956 781.22 796.107 773.749C870.837 760.811 911.013 676.215 873.274 611.262Z" fill="url(#paint0_linear_1_2)"/>
<path d="M350.449 286.204L132.204 624.178C88.1138 692.455 137.127 782.45 218.403 782.45C254.195 782.45 287.273 764.005 306.045 733.532C379.216 614.749 563.938 317.989 606.624 279.361C626.876 261.034 651.003 220.219 633.05 199.634C510.515 59.1449 403.631 177.706 358.297 272.018C355.947 276.905 353.391 281.648 350.449 286.204Z" fill="#64FFDA"/>
</g>
<defs>
<linearGradient id="paint0_linear_1_2" x1="723.564" y1="-43.3592" x2="1383.91" y2="793.037" gradientUnits="userSpaceOnUse">
<stop stop-color="#64FFDA"/>
<stop offset="0.807292" stop-color="#07205D"/>
<stop offset="1" stop-color="#061E5B"/>
</linearGradient>
<clipPath id="clip0_1_2">
<rect width="900" height="900" fill="white"/>
</clipPath>
</defs>
</svg>
